# xmcd CD database file
#
# Track frame offsets:
#	150
#	10412
#	26432
#	39403
#	57409
#	71003
#	88617
#	106741
#	122010
#	142231
#	159824
#	175913
#	192482
#	212755
#	231594
#	260458
#
# Disc length: 3936 seconds
#
# Revision: 0
# Processed by: cddbd v1.5.1PL2 Copyright (c) Steve Scherf et al.
# Submitted via: CDex 1.51
#
DISCID=e10f5e10
DTITLE=Swank - The Survival Issue
DYEAR=2004
DGENRE=New Age
TTITLE0=The Incident at Rock Creek
TTITLE1=How Do We Do
TTITLE2=Lost Respects
TTITLE3=Harvest Time
TTITLE4=Reverend Pleasant
TTITLE5=How Fucked is That
TTITLE6=Halo in the Headlights
TTITLE7=Blackflies
TTITLE8=Meteor
TTITLE9=The Mountain
TTITLE10=Neighbors
TTITLE11=1963 Galaxie
TTITLE12=Western Roundup
TTITLE13=Wanted in Ten States
TTITLE14=Brush Your Teeth
TTITLE15=Video
EXTD=YEAR: 2004
EXTT0=
EXTT1=
EXTT2=
EXTT3=
EXTT4=
EXTT5=
EXTT6=
EXTT7=
EXTT8=
EXTT9=
EXTT10=
EXTT11=
EXTT12=
EXTT13=
EXTT14=
EXTT15=
PLAYORDER=
